<svg xmlns="http://www.w3.org/2000/svg" xml:space="preserve" viewBox="0 0 512 512">
  <path fill="#b29a7e" d="M194 157V96h124v61h37V77c0-10-9-18-19-18H176c-10 0-19 8-19 18v80h37z"/>
  <path fill="#bfa993" d="M466 453H46c-20 0-37-16-37-37V182c0-20 17-37 37-37h420c20 0 37 17 37 37v234c0 21-17 37-37 37z"/>
  <path fill="#b29a7e" d="M466 145h-50c21 0 37 17 37 37v234c0 21-16 37-37 37h50c20 0 37-16 37-37V182c0-20-17-37-37-37z"/>
  <path fill="#88888f" d="M379 145h49v308h-49z"/>
  <path fill="#797781" d="M404 145h25v308h-25z"/>
  <circle cx="305.3" cy="379.4" r="37" fill="#b4d8f1"/>
  <path fill="#95d5a7" d="M198 318 41 286l15-72 157 32z"/>
  <path fill="#e07188" d="M281 228a9 9 0 0 1-2-18l62-12a9 9 0 1 1 3 18l-62 12h-1z"/>
  <path fill="#88888f" d="M83 145h49v308H83z"/>
  <path fill="#797781" d="M108 145h25v308h-25z"/>
  <g fill="#2e2d31">
    <path d="M503 222c-5 0-10 4-10 9v185c0 16-12 28-27 28h-28V154h28c15 0 27 13 27 28a9 9 0 0 0 19 0c0-26-21-46-46-46H364V77c0-15-13-28-28-28H176c-16 0-28 13-28 28v19a9 9 0 0 0 19 0V77c0-5 4-9 9-9h160c5 0 9 4 9 9v59h-18V96c0-5-4-10-9-10H194c-5 0-9 5-9 10v40H46c-25 0-46 20-46 46v234c0 26 21 47 46 47h420c25 0 46-21 46-47V231c0-5-4-9-9-9zM204 105h104v31H204v-31zm-10 49h176v290H142V316l54 11a9 9 0 0 0 11-7l14-73c2-5-2-10-7-11l-72-15v-67h52zm-52 86 60 12-12 55-48-10v-57zm-68 43-23-5 11-54 12 2v57zM19 416V182c0-15 12-28 27-28h28v54l-17-4a9 9 0 0 0-11 7l-15 73c-1 5 3 10 8 11l35 7v142H46c-15 0-27-12-27-28zm74 28V154h30v290H93zm296 0V154h30v290h-30z"/>
    <path d="M305 426a46 46 0 1 0 0-93 46 46 0 0 0 0 93zm0-74a28 28 0 1 1 0 55 28 28 0 0 1 0-55z"/>
  </g>
</svg>